<?xml version="1.0" encoding="UTF-8" standalone="no"?>
<!-- Created with Inkscape (http://www.inkscape.org/) -->

<svg
   xmlns:dc="http://purl.org/dc/elements/1.1/"
   xmlns:cc="http://creativecommons.org/ns#"
   xmlns:rdf="http://www.w3.org/1999/02/22-rdf-syntax-ns#"
   xmlns:svg="http://www.w3.org/2000/svg"
   xmlns="http://www.w3.org/2000/svg"
   version="1.1"
   width="96"
   height="128"
   viewBox="0 0 96 128"
   id="Capa_1"
   xml:space="preserve"><metadata
     id="metadata11"><rdf:RDF><cc:Work
         rdf:about=""><dc:format>image/svg+xml</dc:format><dc:type
           rdf:resource="http://purl.org/dc/dcmitype/StillImage" /><dc:title></dc:title></cc:Work></rdf:RDF></metadata><defs
     id="defs9"><filter
       x="-0.25"
       y="-0.25"
       width="1.5"
       height="1.5"
       color-interpolation-filters="sRGB"
       id="filter3770"><feGaussianBlur
         id="feGaussianBlur3772"
         stdDeviation="5"
         result="result1" /><feTurbulence
         id="feTurbulence3774"
         numOctaves="1"
         seed="0"
         type="fractalNoise"
         baseFrequency="0.1"
         result="result2" /><feDisplacementMap
         in2="result2"
         scale="5"
         xChannelSelector="R"
         yChannelSelector="G"
         in="result1"
         result="result3"
         id="feDisplacementMap3776" /><feComposite
         in2="result3"
         operator="atop"
         result="fbSourceGraphic"
         id="feComposite3778" /><feColorMatrix
         result="fbSourceGraphicAlpha"
         in="fbSourceGraphic"
         values="0 0 0 -1 0 0 0 0 -1 0 0 0 0 -1 0 0 0 0 1 0"
         id="feColorMatrix3780" /><feGaussianBlur
         id="feGaussianBlur3782"
         stdDeviation="5"
         result="result91"
         in="fbSourceGraphic" /><feComposite
         in2="result91"
         operator="over"
         in="fbSourceGraphic"
         id="feComposite3784" /></filter><filter
       color-interpolation-filters="sRGB"
       id="filter3794"><feGaussianBlur
         id="feGaussianBlur3796"
         stdDeviation="5"
         result="result91" /><feComposite
         in2="result91"
         operator="over"
         in="SourceGraphic"
         id="feComposite3798" /></filter><filter
       color-interpolation-filters="sRGB"
       id="filter3767"><feGaussianBlur
         result="result91"
         stdDeviation="5"
         id="feGaussianBlur3769" /><feComposite
         in2="result91"
         operator="over"
         in="SourceGraphic"
         id="feComposite3771" /></filter><filter
       x="-0.25"
       y="-0.25"
       width="1.5"
       height="1.5"
       color-interpolation-filters="sRGB"
       id="filter3773"><feGaussianBlur
         result="result1"
         stdDeviation="5"
         id="feGaussianBlur3775" /><feTurbulence
         result="result2"
         baseFrequency="0.1"
         type="fractalNoise"
         seed="0"
         numOctaves="1"
         id="feTurbulence3777" /><feDisplacementMap
         in2="result2"
         scale="5"
         xChannelSelector="R"
         yChannelSelector="G"
         in="result1"
         result="result3"
         id="feDisplacementMap3779" /><feComposite
         in2="result3"
         operator="atop"
         result="fbSourceGraphic"
         id="feComposite3781" /><feColorMatrix
         id="feColorMatrix3783"
         values="0 0 0 -1 0 0 0 0 -1 0 0 0 0 -1 0 0 0 0 1 0"
         in="fbSourceGraphic"
         result="fbSourceGraphicAlpha" /><feGaussianBlur
         in="fbSourceGraphic"
         result="result91"
         stdDeviation="5"
         id="feGaussianBlur3785" /><feComposite
         in2="result91"
         operator="over"
         in="fbSourceGraphic"
         id="feComposite3787" /></filter></defs><g
     transform="translate(0.30724693,31.21517)"
     id="g3"
     style="fill:#709ecf;fill-opacity:1;filter:url(#filter3794)" /><g
     transform="matrix(1.1700453,0,0,1.1700453,-10.465143,0.034938)"
     id="g3801"
     style="fill:#33b5e5;fill-opacity:1;filter:url(#filter3767)"><path
       d="M 52.4,6.75 C 52.17,6.734 51.964,6.756 51.77,6.793 51.609,6.762 51.438,6.747 51.256,6.75 36.264,6.97 23.216,14.012 20.992,29.837 c -2.016,14.345 4.414,29.319 13.15,40.509 -1.341,0.995 -2.42,2.315 -2.523,4.063 -0.105,1.775 0.821,3.183 2.032,4.33 -1.105,0.945 -1.941,2.148 -2.032,3.677 -0.148,2.504 1.742,4.286 3.612,5.622 0.072,0.052 0.144,0.084 0.216,0.124 -0.538,0.656 -0.913,1.422 -0.967,2.33 -0.125,2.105 1.465,3.604 3.037,4.727 0.107,0.077 0.214,0.133 0.321,0.184 0.307,0.317 0.732,0.536 1.291,0.559 7.991,0.327 15.954,0.501 23.756,-1.511 0.505,-0.131 0.852,-0.403 1.073,-0.738 0.184,-0.2 0.335,-0.451 0.431,-0.766 0.579,-1.902 0.353,-3.824 -0.628,-5.427 0.548,-0.123 1.095,-0.254 1.642,-0.395 0.602,-0.155 1.013,-0.479 1.276,-0.878 0.219,-0.238 0.398,-0.536 0.512,-0.911 0.715,-2.351 0.387,-4.723 -0.899,-6.674 0.151,-0.128 0.284,-0.267 0.387,-0.423 0.219,-0.238 0.398,-0.536 0.512,-0.911 0.779,-2.56 0.332,-5.149 -1.256,-7.187 C 83.105,50.058 86.851,9.185 52.4,6.75 z M 37.868,84.374 c -0.099,-0.1 -0.204,-0.198 -0.328,-0.287 -0.441,-0.315 -0.819,-0.668 -1.186,-1.068 -0.103,-0.113 -0.129,-0.318 -0.15,-0.363 0.149,-0.407 0.712,-0.777 1.261,-1.066 0.196,0.052 0.403,0.088 0.635,0.088 8.118,-0.014 16.229,-0.201 24.339,-0.547 0.396,0.57 0.549,1.179 0.523,1.854 -8.26,1.913 -16.659,1.727 -25.094,1.389 z m 0,-8.007 c -0.099,-0.1 -0.204,-0.198 -0.328,-0.287 -0.441,-0.315 -0.819,-0.668 -1.186,-1.068 -0.103,-0.113 -0.129,-0.318 -0.15,-0.363 0.149,-0.407 0.712,-0.777 1.261,-1.066 0.196,0.052 0.403,0.088 0.635,0.088 8.118,-0.014 16.229,-0.201 24.339,-0.547 0.396,0.57 0.549,1.179 0.523,1.854 -8.26,1.912 -16.659,1.727 -25.094,1.389 z m 1.865,15.771 c -0.083,-0.084 -0.171,-0.167 -0.276,-0.241 -0.371,-0.265 -0.689,-0.562 -0.997,-0.898 -0.087,-0.095 -0.108,-0.267 -0.126,-0.305 0.126,-0.342 0.599,-0.653 1.061,-0.897 0.165,0.044 0.339,0.074 0.535,0.074 6.826,-0.012 13.645,-0.169 20.464,-0.46 0.333,0.479 0.461,0.991 0.44,1.559 -6.946,1.608 -14.008,1.452 -21.101,1.168 z M 62.222,67.476 c -0.307,0.347 -0.473,0.72 -0.548,1.093 -3.063,0.127 -6.126,0.216 -9.19,0.297 0.412,-6.071 0.479,-12.148 0.485,-18.231 4.2,-3.744 7.033,-8.615 8.31,-14.107 0.667,-2.871 -3.744,-4.09 -4.412,-1.216 -1.044,4.489 -3.18,8.303 -6.432,11.447 -3.446,-2.742 -5.912,-6.373 -7.078,-10.684 -0.77,-2.845 -5.184,-1.636 -4.412,1.216 1.515,5.602 4.869,10.184 9.447,13.622 -0.009,6.025 -0.079,12.044 -0.491,18.056 -3.007,0.057 -6.014,0.11 -9.021,0.119 C 38.798,68.929 38.7,68.772 38.574,68.62 30.562,58.901 25.061,46.346 25.248,33.608 25.469,18.502 37.326,11.529 51.256,11.325 c 0.225,-0.003 0.427,-0.04 0.617,-0.093 0.165,0.047 0.339,0.079 0.527,0.093 30.465,2.154 24.553,39.501 9.822,56.151 z"
       transform="translate(0.30724693,3.2151697)"
       id="path5"
       style="fill:#33b5e5;fill-opacity:1" /></g><path
     d="M 34.033761,82.624066 C 26.137171,71.891702 22.00511,62.732327 20.31124,52.205905 19.520292,47.290618 19.523354,40.393729 20.317981,37.023874 22.755986,26.684776 31.231085,19.672633 43.530092,17.818592 c 4.920673,-0.741777 8.329186,-0.690895 12.587923,0.187914 9.785811,2.019344 16.226536,7.910996 19.101081,17.472708 0.940515,3.128471 1.039719,4.044116 1.059554,9.779646 0.01779,5.142903 -0.136075,7.056865 -0.821563,10.219831 -1.689881,7.79743 -5.303617,16.387423 -9.324889,22.165629 -1.035849,1.488416 -2.442354,3.516573 -3.125571,4.507014 l -1.242215,1.800801 -5.104626,0.0209 -5.104628,0.0209 0.26665,-10.450798 0.266649,-10.450799 1.78809,-1.917578 c 3.314116,-3.554115 5.923882,-8.071022 7.107764,-12.301908 0.831673,-2.972186 0.67139,-4.292665 -0.639305,-5.266863 -0.849138,-0.631136 -1.263511,-0.704665 -2.298439,-0.407852 -1.151548,0.330259 -1.366172,0.647497 -2.441223,3.608383 -1.600743,4.408736 -2.815669,6.673224 -5.010881,9.339727 l -1.85635,2.254891 -2.238654,-2.433997 c -2.457377,-2.671805 -4.42847,-5.966432 -5.433524,-9.081985 -0.357887,-1.109409 -0.970107,-2.188047 -1.360488,-2.396972 -1.985842,-1.062791 -4.595365,0.144114 -4.595365,2.125358 0,1.707104 2.260549,6.904639 4.210885,9.681815 1.038964,1.479435 3.018889,3.700266 4.399832,4.935186 l 2.510807,2.245311 2.14e-4,4.06154 c 1.17e-4,2.233848 -0.113181,6.936707 -0.251773,10.450799 l -0.251985,6.389258 -5.213111,-0.01496 -5.213111,-0.01496 -1.268079,-1.723466 z"
     id="path3765"
     style="fill:#ffffff;fill-opacity:1;stroke:#33b5e5;stroke-width:1.15054667;stroke-miterlimit:4;stroke-opacity:1;stroke-dasharray:none;filter:url(#filter3773)" /></svg>